<svg xmlns="http://www.w3.org/2000/svg" width="35" height="34" viewBox="0 0 35 34" fill="none">
    <path
        d="M13.3333 13.3333H30V17.9667H33.3333V11.6667C33.3333 10.75 32.5833 10 31.6667 10H23.3333V1.66667C23.3333 0.75 22.5833 0 21.6667 0H1.66667C0.75 0 0 0.75 0 1.66667V21.6667C0 22.5833 0.75 23.3333 1.66667 23.3333H10V31.6667C10 32.5833 10.75 33.3333 11.6667 33.3333H20V30H13.3333V13.3333ZM10 11.6667V20H3.33333V3.33333H20V10H11.6667C10.75 10 10 10.75 10 11.6667Z"
        fill="#161616" />
    <path
        d="M29.5292 31.8875L29.1125 32.8375C28.8125 33.5208 27.8625 33.5208 27.5625 32.8375L27.1458 31.8875C26.4125 30.2042 25.0958 28.8708 23.4458 28.1375L22.1792 27.5708C21.4958 27.2708 21.4958 26.2708 22.1792 25.9708L23.3792 25.4375C25.0625 24.6875 26.4125 23.3042 27.1292 21.5542L27.5458 20.5375C27.8458 19.8208 28.8125 19.8208 29.1125 20.5375L29.5292 21.5542C30.2458 23.2875 31.5958 24.6875 33.2792 25.4375L34.4792 25.9708C35.1625 26.2708 35.1625 27.2708 34.4792 27.5708L33.2125 28.1375C31.5625 28.8708 30.2458 30.2042 29.5125 31.8875H29.5292Z"
        fill="#161616" />
</svg>