<svg width="80px" height="80px" viewBox="0 0 80 80" xmlns="http://www.w3.org/2000/svg">
    <symbol id="artwork-minor">
        <path fill="#FCC0B0"
            d="M80 40C80 62.0914 62.0914 80 40 80C17.9086 80 0 62.0914 0 40C0 17.9086 17.9086 0 40 0C62.0914 0 80 17.9086 80 40Z" />
    </symbol>
    <symbol id="artwork-major">
        <path fill="#161616"
            d="M40 60C28.954 60 20 51.046 20 40C20 28.954 28.954 20 40 20C51.046 20 60 28.954 60 40C60 51.046 51.046 60 40 60ZM30.026 52.512C32.8571 54.7754 36.3754 56.0058 40 56C43.94 56 47.546 54.576 50.334 52.216C47.7024 49.5158 44.0904 47.9951 40.32 48C36.4081 47.9955 32.6737 49.6323 30.026 52.512ZM27.232 49.64C30.6294 46.0345 35.366 43.9934 40.32 44C45.0932 43.9938 49.6721 45.8896 53.044 49.268C57.7964 42.5793 56.7188 33.3798 50.5494 27.9704C44.38 22.561 35.1186 22.6952 29.1085 28.2811C23.0984 33.8669 22.2878 43.0938 27.232 49.642V49.64ZM40 42C35.5817 42 32 38.4183 32 34C32 29.5817 35.5817 26 40 26C44.4183 26 48 29.5817 48 34C48 38.4183 44.4183 42 40 42ZM40 38C42.2091 38 44 36.2091 44 34C44 31.7909 42.2091 30 40 30C37.7909 30 36 31.7909 36 34C36 36.2091 37.7909 38 40 38Z" />
    </symbol>
    <use class="fr-artwork-decorative" href="#artwork-decorative" />
    <use class="fr-artwork-minor" href="#artwork-minor" />
    <use class="fr-artwork-major" href="#artwork-major" />
</svg>