<svg width="40" height="40" viewBox="0 0 40 40" fill="none" xmlns="http://www.w3.org/2000/svg">
<path d="M40 20C40 31.0457 31.0457 40 20 40C8.9543 40 0 31.0457 0 20C0 8.9543 8.9543 0 20 0C31.0457 0 40 8.9543 40 20Z" fill="#DAE6FD"/>
<path fill-rule="evenodd" clip-rule="evenodd" d="M26.031 24.617L30.314 28.899L28.899 30.314L24.617 26.031C23.0237 27.3082 21.042 28.0029 19 28C14.032 28 10 23.968 10 19C10 14.032 14.032 10 19 10C23.968 10 28 14.032 28 19C28.0029 21.042 27.3082 23.0237 26.031 24.617ZM24.025 23.875C25.2941 22.5699 26.0029 20.8204 26 19C26 15.132 22.867 12 19 12C15.132 12 12 15.132 12 19C12 22.867 15.132 26 19 26C20.8204 26.0029 22.5699 25.2941 23.875 24.025L24.025 23.875Z" fill="#161616"/>
</svg>
