<svg width="40" height="40" viewBox="0 0 40 40" fill="none" xmlns="http://www.w3.org/2000/svg">
<path d="M40 20C40 31.0457 31.0457 40 20 40C8.9543 40 0 31.0457 0 20C0 8.9543 8.9543 0 20 0C31.0457 0 40 8.9543 40 20Z" fill="#FDE39C"/>
<path fill-rule="evenodd" clip-rule="evenodd" d="M27.549 10.7923L30.544 13.7863C30.9005 14.143 30.9357 14.7093 30.626 15.1073L26.786 20.0453C27.3346 22.283 26.825 24.6487 25.4037 26.462C23.9824 28.2754 21.807 29.3354 19.503 29.3373C16 29.3373 11.5 27.8353 9 26.3353C11.8302 24.202 12.176 22.6704 12.3025 21.3558L12.3242 21.1118C12.3614 20.6687 12.3893 20.2484 12.5 19.8353C13.558 15.8853 17.342 13.5783 21.289 14.5513H21.29L26.229 10.7103C26.6268 10.4012 27.1925 10.4364 27.549 10.7923ZM14.432 20.3523C14.389 20.5123 14.366 20.6923 14.328 21.1433C14.174 23.0133 13.734 24.4083 12.528 25.8233C14.788 26.7113 17.466 27.3373 19.502 27.3373C21.9902 27.3342 24.167 25.6625 24.812 23.2593C25.3131 21.3939 24.7983 19.4023 23.456 18.0133L23.314 17.8713C22.6448 17.226 21.8223 16.7618 20.924 16.5223C18.017 15.7443 15.225 17.3913 14.432 20.3523ZM26.76 12.8303L23.578 15.3053L24.703 16.4303C24.768 16.4933 24.833 16.5583 24.896 16.6243L26.031 17.7583L28.506 14.5763L26.76 12.8303Z" fill="#161616"/>
</svg>
