<svg width="80" height="80" viewBox="0 0 80 80" fill="none" xmlns="http://www.w3.org/2000/svg">
<path d="M80 40C80 62.0914 62.0914 80 40 80C17.9086 80 0 62.0914 0 40C0 17.9086 17.9086 0 40 0C62.0914 0 80 17.9086 80 40Z" fill="#EAC7B2"/>
<path fill-rule="evenodd" clip-rule="evenodd" d="M54 36H56C57.1046 36 58 36.8954 58 38V58C58 59.1046 57.1046 60 56 60H24C22.8954 60 22 59.1046 22 58V38C22 36.8954 22.8954 36 24 36H26V34C26 28.9983 28.6684 24.3765 33 21.8756C37.3316 19.3748 42.6684 19.3748 47 21.8756C51.3316 24.3765 54 28.9983 54 34V36ZM26 40V56H54V40H26ZM38 44H42V52H38V44ZM50 36V34C50 28.4772 45.5228 24 40 24C34.4772 24 30 28.4772 30 34V36H50Z" fill="#161616"/>
</svg>
