<svg xmlns="http://www.w3.org/2000/svg" width="96" height="96" viewBox="0 0 96 96" fill="none">
    <path
        d="M45.6008 74.3998C45.6008 72.4116 43.989 70.7998 42.0008 70.7998C40.0126 70.7998 38.4008 72.4116 38.4008 74.3998C38.4008 76.388 40.0126 77.9998 42.0008 77.9998V80.3998C38.6871 80.3998 36.0008 77.7135 36.0008 74.3998C36.0008 71.0861 38.6871 68.3998 42.0008 68.3998C45.3145 68.3998 48.0008 71.0861 48.0008 74.3998C48.0008 77.7135 45.3145 80.3998 42.0008 80.3998V77.9998C43.989 77.9998 45.6008 76.388 45.6008 74.3998ZM56.4008 71.3998C56.4008 70.4057 55.5949 69.5998 54.6008 69.5998C53.6067 69.5998 52.8008 70.4057 52.8008 71.3998C52.8008 72.3939 53.6067 73.1998 54.6008 73.1998V75.5998C52.2812 75.5998 50.4008 73.7194 50.4008 71.3998C50.4008 69.0802 52.2812 67.1998 54.6008 67.1998C56.9204 67.1998 58.8008 69.0802 58.8008 71.3998C58.8008 73.7194 56.9204 75.5998 54.6008 75.5998V73.1998C55.5949 73.1998 56.4008 72.3939 56.4008 71.3998ZM51.6008 61.1998C51.6008 60.5371 51.0635 59.9998 50.4008 59.9998C49.738 59.9998 49.2008 60.5371 49.2008 61.1998C49.2008 61.8625 49.738 62.3998 50.4008 62.3998V64.7998C48.4126 64.7998 46.8008 63.188 46.8008 61.1998C46.8008 59.2116 48.4126 57.5998 50.4008 57.5998C52.389 57.5998 54.0008 59.2116 54.0008 61.1998C54.0008 63.188 52.389 64.7998 50.4008 64.7998V62.3998C51.0635 62.3998 51.6008 61.8625 51.6008 61.1998ZM50.4008 21.5998C50.4008 20.9371 49.8635 20.3998 49.2008 20.3998C48.538 20.3998 48.0008 20.9371 48.0008 21.5998C48.0008 22.2625 48.538 22.7998 49.2008 22.7998V25.1998C47.2126 25.1998 45.6008 23.588 45.6008 21.5998C45.6008 19.6116 47.2126 17.9998 49.2008 17.9998C51.189 17.9998 52.8008 19.6116 52.8008 21.5998C52.8008 23.588 51.189 25.1998 49.2008 25.1998V22.7998C49.8635 22.7998 50.4008 22.2625 50.4008 21.5998ZM42.0008 15.5998C42.0008 14.2743 40.9263 13.1998 39.6008 13.1998C38.2753 13.1998 37.2008 14.2743 37.2008 15.5998C37.2008 16.9253 38.2753 17.9998 39.6008 17.9998V20.3998C36.9498 20.3998 34.8008 18.2508 34.8008 15.5998C34.8008 12.9488 36.9498 10.7998 39.6008 10.7998C42.2517 10.7998 44.4008 12.9488 44.4008 15.5998C44.4008 18.2508 42.2517 20.3998 39.6008 20.3998V17.9998C40.9263 17.9998 42.0008 16.9253 42.0008 15.5998Z"
        fill="#6A6AF4" />
    <path
        d="M52.7989 35.9907C52.203 35.9206 51.7407 35.4149 51.7407 34.8001C51.7407 34.1374 52.278 33.6001 52.9407 33.6001H55.1989V30.0001H40.7989V33.6001H48.988C49.6506 33.6003 50.188 34.1375 50.188 34.8001C50.188 35.4627 49.6506 35.9999 48.988 36.0001H43.1989V47.413C43.1989 48.8345 42.839 50.233 42.1513 51.477L38.1024 58.8001H43.1989C43.8617 58.8001 44.3989 59.3374 44.3989 60.0001C44.3989 60.6628 43.8617 61.2001 43.1989 61.2001H36.7759L28.772 75.6774C27.0034 78.8765 29.3167 82.7998 32.972 82.8001H63.0271C66.6822 82.7997 68.9956 78.8764 67.2271 75.6774L59.2231 61.2001H57.5989C56.9364 61.1998 56.3989 60.6627 56.3989 60.0001C56.3989 59.3375 56.9364 58.8004 57.5989 58.8001H57.8966L53.8478 51.477C53.16 50.2329 52.7989 48.8345 52.7989 47.413V35.9907ZM55.1989 47.413C55.1989 48.4284 55.4576 49.427 55.9489 50.3157L60.8192 59.1259C61 59.2955 61.1281 59.5195 61.1767 59.7728L69.3282 74.5161C71.9811 79.3147 68.51 85.1997 63.0271 85.2001H32.972C27.4889 85.1998 24.0179 79.3148 26.6708 74.5161L34.8212 59.7728C34.8698 59.5194 34.9978 59.2943 35.1786 59.1247L40.0501 50.3157C40.5414 49.4271 40.7989 48.4284 40.7989 47.413V36.0001H39.5989C39.2808 36 38.9754 35.8735 38.7505 35.6485C38.5256 35.4235 38.3989 35.1182 38.3989 34.8001V28.8001C38.3989 28.1375 38.9364 27.6004 39.5989 27.6001H56.3989C57.0617 27.6001 57.5989 28.1374 57.5989 28.8001V34.8001C57.5989 35.4628 57.0617 36.0001 56.3989 36.0001H55.1989V47.413Z"
        fill="#000091" />
</svg>