<svg width="240" height="271" viewBox="0 0 240 271" fill="none" xmlns="http://www.w3.org/2000/svg">
<g clip-path="url(#clip0_5578_798503)">
<path fill-rule="evenodd" clip-rule="evenodd" d="M193.992 50.2505C218.017 60.3461 234.922 84.3974 239.015 109.488C243.108 134.578 234.211 160.708 216.593 179.266C198.975 197.824 172.638 208.959 145.588 216.383C118.361 223.954 90.4216 227.814 69.0668 219.946C47.7119 212.077 32.9415 192.331 20.1287 172.289C7.31577 152.394 -3.53959 132.203 1.08728 114.981C5.89211 97.7592 26.0012 83.655 46.2883 73.114C66.5754 62.573 86.6845 55.4467 112.488 49.9535C138.292 44.3119 169.79 40.3033 193.992 50.2505Z" fill="#C7F6FC"/>
<path fill-rule="evenodd" clip-rule="evenodd" d="M3.75025 212.103C4.66667 212.103 5.49761 212.476 6.09953 213.078C6.70163 213.68 7.07472 214.511 7.07472 215.428C7.07472 216.345 6.70157 217.176 6.09939 217.779C5.49749 218.381 4.6666 218.754 3.75025 218.754C2.8339 218.754 2.00301 218.381 1.40111 217.779C0.798933 217.176 0.425781 216.345 0.425781 215.428C0.425781 214.511 0.798865 213.68 1.40097 213.078C2.00288 212.476 2.83383 212.103 3.75025 212.103ZM3.75025 212.381C2.90991 212.381 2.14756 212.723 1.59543 213.275C1.04368 213.826 0.702028 214.588 0.702028 215.428C0.702028 216.269 1.04368 217.03 1.59543 217.582C2.14756 218.134 2.90991 218.476 3.75025 218.476C4.59084 218.476 5.35311 218.134 5.90514 217.582C6.45689 217.03 6.79847 216.269 6.79847 215.428C6.79847 214.588 6.45689 213.826 5.90514 213.275C5.35311 212.723 4.59084 212.381 3.75025 212.381ZM198.068 168.352C198.134 168.352 198.199 168.377 198.249 168.428C198.3 168.478 198.325 168.544 198.325 168.61C198.325 168.676 198.299 168.742 198.249 168.792L195.363 171.677L198.249 174.563C198.299 174.614 198.325 174.68 198.325 174.746C198.325 174.811 198.299 174.877 198.249 174.928C198.199 174.978 198.134 175.003 198.068 175.003C198.002 175.003 197.937 174.978 197.887 174.928L195 172.04L192.113 174.928C192.064 174.978 191.998 175.003 191.932 175.003C191.867 175.003 191.801 174.978 191.751 174.928C191.701 174.877 191.676 174.811 191.676 174.746C191.676 174.68 191.701 174.614 191.751 174.563L194.637 171.677L191.752 168.792C191.701 168.742 191.676 168.676 191.676 168.61C191.676 168.544 191.701 168.478 191.752 168.427C191.802 168.377 191.867 168.352 191.932 168.352L195 171.313L197.887 168.428C197.937 168.378 198.003 168.352 198.068 168.352ZM48.068 160.852C48.1337 160.852 48.1992 160.877 48.2493 160.928C48.2995 160.978 48.3245 161.044 48.3245 161.109C48.3245 161.176 48.2993 161.242 48.2494 161.292L45.363 164.177L48.2491 167.063C48.2994 167.114 48.3247 167.179 48.3247 167.245C48.3247 167.311 48.2994 167.377 48.2491 167.428C48.1991 167.478 48.1336 167.503 48.068 167.503C48.0024 167.503 47.9369 167.478 47.887 167.428L45 164.54L42.1135 167.428C42.0636 167.478 41.9981 167.503 41.9325 167.503C41.8669 167.503 41.8014 167.478 41.7514 167.428C41.7011 167.377 41.6758 167.311 41.6758 167.245C41.6758 167.179 41.7011 167.114 41.7515 167.063L44.637 164.177L41.7516 161.292C41.7012 161.242 41.676 161.176 41.676 161.109C41.676 161.044 41.701 160.978 41.7512 160.928C41.8013 160.877 41.8668 160.852 41.9325 160.852L45 163.814L47.8876 160.927C47.9374 160.877 48.0027 160.852 48.068 160.852ZM195 97.101C195.917 97.101 196.748 97.4741 197.349 98.0759C197.952 98.678 198.325 99.5093 198.325 100.426C198.325 101.343 197.952 102.174 197.349 102.777C196.748 103.379 195.917 103.752 195 103.752C194.084 103.752 193.253 103.379 192.651 102.777C192.049 102.174 191.676 101.343 191.676 100.426C191.676 99.5093 192.049 98.6781 192.651 98.0759C193.253 97.4741 194.084 97.101 195 97.101ZM195 97.3788C194.16 97.3788 193.397 97.7204 192.845 98.2724C192.294 98.8242 191.952 99.5859 191.952 100.426C191.952 101.266 192.294 102.028 192.845 102.58C193.397 103.132 194.16 103.474 195 103.474C195.84 103.474 196.603 103.132 197.155 102.58C197.707 102.028 198.048 101.266 198.048 100.426C198.048 99.586 197.707 98.8242 197.155 98.2725C196.603 97.7204 195.84 97.3788 195 97.3788ZM239.318 44.6001C239.384 44.6001 239.449 44.625 239.499 44.6749C239.549 44.7253 239.575 44.7914 239.575 44.8574C239.575 44.9231 239.55 44.9888 239.499 45.0393L236.613 47.9252L239.499 50.8112C239.549 50.8616 239.575 50.9274 239.575 50.9934C239.575 51.0593 239.549 51.1252 239.499 51.1755C239.449 51.2255 239.384 51.2507 239.318 51.2507C239.252 51.2507 239.187 51.2255 239.137 51.1756L236.25 48.288L233.363 51.1755C233.314 51.2255 233.248 51.2507 233.182 51.2507C233.117 51.2507 233.051 51.2255 233.001 51.1755C232.951 51.1252 232.926 51.0593 232.926 50.9934C232.926 50.9274 232.951 50.8616 233.001 50.8112L235.887 47.9252L233.001 45.0389C232.951 44.9888 232.926 44.9231 232.926 44.8574C232.926 44.7914 232.951 44.7253 233.002 44.6749C233.051 44.625 233.117 44.6001 233.182 44.6001L236.25 47.5613L239.137 44.6753C239.187 44.6252 239.253 44.6001 239.318 44.6001ZM47.1958 45.4258C47.8847 46.0312 48.2629 46.8606 48.3177 47.7106C48.3726 48.5606 48.1042 49.4315 47.4987 50.1202C46.9152 50.7843 46.1089 51.1831 45.2271 51.2429C44.1997 51.2476 43.4226 50.9647 42.8064 50.4224C42.139 49.8365 41.7403 49.0256 41.6828 48.1385C41.6258 47.2522 41.9172 46.3962 42.5043 45.7286C43.1092 45.0401 43.9378 44.6619 44.7874 44.6071C45.6368 44.5522 46.5073 44.8207 47.1958 45.4258ZM45.0029 44.8778C44.1558 44.8778 43.3127 45.2279 42.7107 45.9125C42.1734 46.5245 41.9062 47.3084 41.9593 48.1212C42.0116 48.9331 42.3772 49.6764 42.9883 50.2135C43.6007 50.7518 44.387 51.0212 45.1986 50.9662C46.0103 50.9139 46.754 50.5477 47.2912 49.9363C47.8459 49.3054 48.0924 48.5076 48.0422 47.7287C47.9921 46.9498 47.6452 46.19 47.0142 45.635C46.4359 45.1275 45.7178 44.8778 45.0029 44.8778Z" stroke="#161616"/>
<path d="M133.324 133.651C133.218 133.651 133.112 133.651 132.991 133.636C131.707 133.5 130.665 132.595 130.363 131.329C129.91 129.414 128.928 127.664 127.538 126.277C126.148 124.89 124.396 123.91 122.477 123.457C121.661 123.261 121.163 122.447 121.359 121.633C121.556 120.818 122.371 120.321 123.187 120.517C125.65 121.105 127.885 122.357 129.683 124.151C131.481 125.945 132.734 128.177 133.324 130.635L142.418 111.439L130.076 117.275C129.32 117.637 128.429 117.305 128.067 116.551C127.704 115.797 128.036 114.892 128.792 114.546L144.955 106.9C145.53 106.629 146.224 106.75 146.662 107.202C147.116 107.654 147.237 108.333 146.965 108.921L136.043 131.932C135.529 132.987 134.487 133.636 133.324 133.651Z" fill="#161616"/>
<path d="M120.075 168.484C118.262 168.484 116.45 168.348 114.622 168.061C113.791 167.926 113.232 167.157 113.368 166.342C113.504 165.513 114.274 164.97 115.09 165.091C123.459 166.403 131.843 164.382 138.686 159.391C139.366 158.893 140.303 159.044 140.801 159.723C141.3 160.401 141.149 161.336 140.469 161.834C134.457 166.207 127.372 168.484 120.075 168.484Z" fill="#161616"/>
<path d="M120 177.531C95.8448 177.531 76.1914 157.913 76.1914 133.801C76.1914 109.69 95.8448 90.0718 120 90.0718C144.155 90.0718 163.808 109.69 163.808 133.801C163.808 141.703 161.663 149.453 157.63 156.209C157.207 156.918 156.27 157.159 155.56 156.737C154.85 156.314 154.609 155.38 155.032 154.671C158.793 148.383 160.787 141.16 160.787 133.801C160.787 111.348 142.493 93.0876 120 93.0876C97.5065 93.0876 79.2127 111.348 79.2127 133.801C79.2127 156.254 97.5065 174.515 120 174.515C130.892 174.515 141.134 170.278 148.838 162.587C149.427 161.999 150.379 161.999 150.968 162.587C151.557 163.176 151.557 164.126 150.968 164.714C142.705 172.977 131.707 177.531 120 177.531Z" fill="#161616"/>
<path d="M71.6591 135.309C70.8282 135.309 70.1484 134.631 70.1484 133.801C70.1484 125.312 72.3238 116.928 76.4629 109.554C76.8708 108.83 77.7923 108.574 78.5174 108.966C79.2425 109.373 79.4993 110.293 79.1065 111.017C75.2242 117.953 73.1697 125.824 73.1697 133.801C73.1697 134.631 72.4899 135.309 71.6591 135.309Z" fill="#161616"/>
<path d="M119.999 141.431C115.785 141.431 112.355 138.009 112.355 133.801C112.355 129.594 115.785 126.171 119.999 126.171C124.214 126.171 127.643 129.594 127.643 133.801C127.643 138.009 124.214 141.431 119.999 141.431ZM119.999 129.187C117.446 129.187 115.377 131.253 115.377 133.801C115.377 136.35 117.446 138.416 119.999 138.416C122.552 138.416 124.622 136.35 124.622 133.801C124.622 131.253 122.552 129.187 119.999 129.187Z" fill="#161616"/>
<path d="M94.4091 160.853C94.0163 160.853 93.6236 160.703 93.3366 160.416C92.8834 159.964 92.7625 159.285 93.0344 158.712L103.956 135.701C104.515 134.525 105.709 133.862 106.993 133.997C108.277 134.133 109.319 135.038 109.621 136.305C110.074 138.22 111.056 139.969 112.446 141.356C113.836 142.743 115.588 143.723 117.507 144.176C118.323 144.372 118.821 145.186 118.625 146C118.428 146.815 117.613 147.312 116.797 147.116C114.334 146.528 112.099 145.277 110.301 143.482C108.503 141.688 107.25 139.456 106.675 136.998L97.5814 156.194L110.633 150.027C111.389 149.68 112.295 149.996 112.643 150.75C113.005 151.504 112.673 152.394 111.917 152.756L95.0436 160.733C94.8623 160.793 94.6357 160.853 94.4091 160.853Z" fill="#161616"/>
</g>
<defs>
<clipPath id="clip0_5578_798503">
<rect width="240" height="271" fill="white"/>
</clipPath>
</defs>
</svg>
