<svg width="80" height="80" viewBox="0 0 80 80" fill="none" xmlns="http://www.w3.org/2000/svg">
<path d="M80 40C80 62.0914 62.0914 80 40 80C17.9086 80 0 62.0914 0 40C0 17.9086 17.9086 0 40 0C62.0914 0 80 17.9086 80 40Z" fill="#EAC7AD"/>
<path d="M19.1667 42.0833H31.6667V58.75H19.1667V42.0833ZM48.3333 31.6667H60.8333V58.75H48.3333V31.6667ZM33.75 21.25H46.25V58.75H33.75V21.25ZM23.3333 46.25V54.5833H27.5V46.25H23.3333ZM37.9167 25.4167V54.5833H42.0833V25.4167H37.9167ZM52.5 35.8333V54.5833H56.6667V35.8333H52.5Z" fill="#161616"/>
</svg>
