<svg width="40" height="40" viewBox="0 0 40 40" fill="none" xmlns="http://www.w3.org/2000/svg">
<path d="M40 20C40 31.0457 31.0457 40 20 40C8.9543 40 0 31.0457 0 20C0 8.9543 8.9543 0 20 0C31.0457 0 40 8.9543 40 20Z" fill="#FEE9E7"/>
<path d="M12 13.6423V26.4663L17.065 24.2963L23.065 27.2963L28 25.1793V12.3563L29.303 11.7983C29.3791 11.7657 29.4621 11.7525 29.5445 11.7598C29.627 11.7672 29.7063 11.7949 29.7754 11.8405C29.8445 11.8861 29.9012 11.9482 29.9404 12.0211C29.9796 12.094 30.0001 12.1755 30 12.2583V26.4993L23 29.4993L17 26.4993L10.697 29.2003C10.6209 29.2329 10.5379 29.2461 10.4555 29.2387C10.373 29.2314 10.2937 29.2036 10.2246 29.158C10.1555 29.1124 10.0988 29.0504 10.0596 28.9775C10.0204 28.9046 9.99993 28.8231 10 28.7403V14.4993L12 13.6423ZM24.243 18.7423L20 22.9843L15.757 18.7423C14.918 17.9031 14.3466 16.834 14.1152 15.6702C13.8838 14.5063 14.0027 13.3 14.4568 12.2037C14.911 11.1074 15.68 10.1704 16.6667 9.51111C17.6534 8.85187 18.8134 8.5 20 8.5C21.1866 8.5 22.3466 8.85187 23.3333 9.51111C24.32 10.1704 25.089 11.1074 25.5432 12.2037C25.9973 13.3 26.1162 14.5063 25.8848 15.6702C25.6534 16.834 25.082 17.9031 24.243 18.7423ZM20 20.1563L22.828 17.3273C23.3875 16.7679 23.7686 16.0552 23.9231 15.2792C24.0775 14.5033 23.9983 13.6989 23.6956 12.968C23.3929 12.237 22.8802 11.6122 22.2224 11.1726C21.5646 10.7331 20.7912 10.4984 20 10.4984C19.2088 10.4984 18.4354 10.7331 17.7776 11.1726C17.1198 11.6122 16.6071 12.237 16.3044 12.968C16.0017 13.6989 15.9225 14.5033 16.0769 15.2792C16.2314 16.0552 16.6125 16.7679 17.172 17.3273L20 20.1563Z" fill="#161616"/>
</svg>
