<svg width="240" height="135" viewBox="0 0 240 135" fill="none" xmlns="http://www.w3.org/2000/svg" xmlns:xlink="http://www.w3.org/1999/xlink">
<rect width="239.25" height="134.578" fill="#F5F5FE"/>
<rect width="239.25" height="134.578" fill="url(#pattern0_5625_7264)"/>
<defs>
<pattern id="pattern0_5625_7264" patternUnits="userSpaceOnUse" patternTransform="matrix(80 0 0 160 79.625 27.2891)" preserveAspectRatio="none" viewBox="0 0 80 160" width="1" height="1">
<use xlink:href="#pattern0_5625_7264_inner" transform="translate(-80 0)"/>
<g id="pattern0_5625_7264_inner">
<path fill-rule="evenodd" clip-rule="evenodd" d="M10 8C9.4486 8 9 7.5514 9 7C9 6.44855 9.4486 6 10 6C10.5514 6 11 6.44855 11 7C11 7.5514 10.5514 8 10 8Z" fill="#ECECFE"/>
<path fill-rule="evenodd" clip-rule="evenodd" d="M16 71C15.4486 71 15 70.5514 15 70C15 69.4486 15.4486 69 16 69C16.5514 69 17 69.4486 17 70C17 70.5514 16.5514 71 16 71Z" fill="#ECECFE"/>
<path fill-rule="evenodd" clip-rule="evenodd" d="M68 56C67.4486 56 67 55.5514 67 55C67 54.4486 67.4486 54 68 54C68.5514 54 69 54.4486 69 55C69 55.5514 68.5514 56 68 56Z" fill="#ECECFE"/>
<path fill-rule="evenodd" clip-rule="evenodd" d="M70 8C69.4486 8 69 7.5514 69 7C69 6.44855 69.4486 6 70 6C70.5514 6 71 6.44855 71 7C71 7.5514 70.5514 8 70 8Z" fill="#ECECFE"/>
<path d="M38 62C38 60.3431 36.6569 59 35 59C33.3431 59 32 60.3431 32 62C32 63.6569 33.3431 65 35 65V67C32.2386 67 30 64.7614 30 62C30 59.2386 32.2386 57 35 57C37.7614 57 40 59.2386 40 62C40 64.7614 37.7614 67 35 67V65C36.6569 65 38 63.6569 38 62ZM47 59.5C47 58.6716 46.3284 58 45.5 58C44.6716 58 44 58.6716 44 59.5C44 60.3284 44.6716 61 45.5 61V63C43.567 63 42 61.433 42 59.5C42 57.567 43.567 56 45.5 56C47.433 56 49 57.567 49 59.5C49 61.433 47.433 63 45.5 63V61C46.3284 61 47 60.3284 47 59.5ZM43 51C43 50.4477 42.5523 50 42 50C41.4477 50 41 50.4477 41 51C41 51.5523 41.4477 52 42 52V54C40.3431 54 39 52.6569 39 51C39 49.3431 40.3431 48 42 48C43.6569 48 45 49.3431 45 51C45 52.6569 43.6569 54 42 54V52C42.5523 52 43 51.5523 43 51ZM42 18C42 17.4477 41.5523 17 41 17C40.4477 17 40 17.4477 40 18C40 18.5523 40.4477 19 41 19V21C39.3431 21 38 19.6569 38 18C38 16.3431 39.3431 15 41 15C42.6569 15 44 16.3431 44 18C44 19.6569 42.6569 21 41 21V19C41.5523 19 42 18.5523 42 18ZM35 13C35 11.8954 34.1046 11 33 11C31.8954 11 31 11.8954 31 13C31 14.1046 31.8954 15 33 15V17C30.7909 17 29 15.2091 29 13C29 10.7909 30.7909 9 33 9C35.2091 9 37 10.7909 37 13C37 15.2091 35.2091 17 33 17V15C34.1046 15 35 14.1046 35 13Z" fill="#6A6AF4"/>
<path d="M43.9996 29.9922C43.503 29.9337 43.1178 29.5123 43.1178 29C43.1178 28.4477 43.5655 28 44.1178 28H45.9996V25H33.9996V28H40.8238C41.376 28.0002 41.8238 28.4478 41.8238 29C41.8238 29.5522 41.376 29.9998 40.8238 30H35.9996V39.5107C35.9996 40.6953 35.6997 41.8607 35.1266 42.8975L31.7525 49H35.9996C36.5519 49 36.9996 49.4477 36.9996 50C36.9996 50.5523 36.5519 51 35.9996 51H30.6471L23.9771 63.0645C22.5033 65.7303 24.4311 68.9998 27.4771 69H52.523C55.569 68.9997 57.4968 65.7303 56.023 63.0645L49.3531 51H47.9996C47.4475 50.9998 46.9996 50.5521 46.9996 50C46.9996 49.4479 47.4475 49.0002 47.9996 49H48.2477L44.8736 42.8975C44.3005 41.8607 43.9996 40.6954 43.9996 39.5107V29.9922ZM45.9996 39.5107C45.9996 40.3569 46.2152 41.1891 46.6246 41.9297L50.6832 49.2715C50.8338 49.4128 50.9405 49.5995 50.9811 49.8105L57.774 62.0967C59.9848 66.0955 57.0922 70.9997 52.523 71H27.4771C22.9079 70.9998 20.0154 66.0956 22.2262 62.0967L29.0182 49.8105C29.0587 49.5994 29.1653 49.4119 29.316 49.2705L33.3756 41.9297C33.785 41.1891 33.9996 40.3569 33.9996 39.5107V30H32.9996C32.7345 29.9999 32.48 29.8945 32.2926 29.707C32.1052 29.5195 31.9996 29.2651 31.9996 29V24C31.9996 23.4479 32.4475 23.0002 32.9996 23H46.9996C47.5519 23 47.9996 23.4477 47.9996 24V29C47.9996 29.5523 47.5519 30 46.9996 30H45.9996V39.5107Z" fill="#000091"/>
</g>
<use xlink:href="#pattern0_5625_7264_inner" transform="translate(-40 80)"/>
<use xlink:href="#pattern0_5625_7264_inner" transform="translate(40 80)"/>
</pattern></defs>
</svg>
