<svg width="112" height="112" viewBox="0 0 112 112" fill="none" xmlns="http://www.w3.org/2000/svg" xmlns:xlink="http://www.w3.org/1999/xlink">
<rect width="112" height="112" rx="4" fill="url(#pattern0_3473_72192)"/>
<defs>
<pattern id="pattern0_3473_72192" patternUnits="userSpaceOnUse" patternTransform="matrix(115 0 0 115 -1.5 -1.5)" preserveAspectRatio="none" viewBox="0 0 500 500" width="1" height="1">
<g id="pattern0_3473_72192_inner">
<g clip-path="url(#clip0_3473_72192)">
<rect width="500" height="500" fill="#F5F5FE"/>
<path d="M46.1035 45L49.8355 48.7334L50.6649 51.6372L51.4942 55.7854L53.1529 58.6891L56.4703 61.178L59.3729 62.0077L62.2757 62.4225L70.1544 62.8374L82.1799 66.5707L89.644 67.8152L94.2055 69.8893L103.328 67.4004L115.354 66.9856L120.33 65.7411L124.062 64.0818L135.258 55.7854L138.161 53.7113L141.893 52.4668L144.381 52.8816L146.454 54.5409L148.113 57.0298L151.43 59.5188L158.065 62.8374H162.212L168.432 64.0818L184.604 71.5486L188.336 72.3783L192.068 71.9634L200.776 66.5707L205.337 64.9115L209.484 66.5707L254.269 91.46H256.757L260.904 89.3859L262.977 90.6304L264.635 92.2897L265.465 94.3638L267.953 97.6824L273.344 102.245L284.54 97.2676L290.76 98.512L295.321 103.49L298.224 105.979L301.126 105.564L306.517 103.49L308.591 104.32L311.079 106.808L312.323 107.638L314.811 108.883H317.713L319.372 108.053L321.031 106.394L322.275 104.32L325.178 101.831L327.666 101.416L330.154 101.831L344.252 105.979L364.157 102.245L368.303 100.586L370.792 101.831L374.523 104.734H376.597L380.743 101.001L384.476 99.3417L387.793 98.9269L391.94 99.3417L394.842 98.0972L400.648 93.949L416.405 98.9269L418.479 101.416L420.967 104.734L424.699 113.86L425.113 117.594L424.284 121.327L423.455 123.816L422.625 126.305V127.964L423.455 131.283L425.528 133.772L462.434 166.958L465.337 167.787L469.483 165.298L471.557 164.884L473.215 166.543L474.459 168.617L475.289 174.839L475.703 179.402L476.118 182.306L478.606 186.039L487.729 193.091L491.875 194.751L495.608 195.166L502.657 193.921L502.242 202.217L500.998 204.706L499.34 206.781L496.852 207.61H488.144L485.241 208.44L484.411 210.099L485.655 212.173L488.973 215.077L489.388 217.151L487.729 219.225L484.411 222.129L482.338 225.033L481.509 229.181V231.67L482.338 232.5V232.914L483.997 233.329L486.9 232.914H488.144L488.558 233.329L489.388 234.574L490.632 237.477L492.705 239.137L494.778 240.796L496.022 242.87L496.852 245.359L497.266 247.848L498.51 254.07L498.925 258.218L496.852 267.345L497.266 271.908L498.096 274.811L500.169 276.471L502.657 276.056L507.218 274.396H508.877L510.536 275.226L512.609 278.545L518 286.012L506.804 295.967L502.242 303.019L500.584 310.071L498.51 314.634L496.022 317.123L492.705 318.368H489.802L485.655 319.612L484.411 320.442L483.997 322.516L485.241 325.005L487.729 329.568L488.144 330.812L487.314 332.886L481.923 337.449L480.68 339.938L480.265 342.427L483.167 348.235V349.479L482.753 351.553L481.509 356.116L480.68 360.68L481.509 364.413L474.874 371.465L471.142 378.932L469.069 379.761H466.581L461.604 377.687L459.117 377.272L432.992 381.835H429.26L426.357 380.591L413.917 379.347L411.014 379.761L408.941 381.006L407.283 381.835L405.624 383.495L403.965 383.91L391.11 383.495L389.452 385.154L388.208 386.398L387.793 389.302L386.964 393.036L386.549 395.11L385.305 397.184L384.061 399.673L383.646 402.162L383.232 404.651V407.14L383.646 409.628L384.476 412.532L385.305 415.021L386.964 417.095L387.793 419.584L387.378 422.073L386.134 424.147L384.476 426.636V427.051L381.987 432.029L380.743 434.518L377.841 437.836L369.547 441.985L366.645 444.059L364.986 446.133L364.157 448.207L362.913 452.77L362.083 457.748L361.254 463.14L335.544 472.267L331.812 472.681L327.666 471.852V469.363L328.495 466.874L329.739 464.8L328.91 462.726L326.007 461.481L318.958 461.896L314.811 463.555L312.323 466.044L310.664 468.533L308.176 471.437L302.785 474.756L299.468 475.585L264.221 473.096L260.074 473.511L250.951 476H247.219L243.487 475.17L240.999 473.511L239.341 471.437L238.926 468.948L239.341 466.459L240.585 464.385L242.658 462.726H244.731L251.366 463.97H252.61L253.854 462.311L254.269 460.237L253.439 458.163L252.195 455.259L251.781 454.429V453.185L254.683 448.622L255.513 446.133V443.644L253.439 440.325L250.122 436.592L235.608 426.636V426.221L234.779 424.977L231.462 410.458L229.803 407.14L226.071 401.747L223.998 402.162L216.119 403.406L204.508 396.769L202.02 397.184L200.361 398.428L198.703 401.332L195.8 403.406L189.165 405.48L186.262 404.236L184.604 402.577L184.189 400.088L182.945 397.184L180.457 395.11L176.725 392.206L174.237 392.621L172.578 394.28L170.505 399.258L168.846 401.332L166.773 403.821L158.065 407.969L120.744 416.266L116.598 413.362L116.183 411.703V409.214L117.842 407.554L119.915 405.065L123.647 399.673L123.232 397.599L122.403 396.354L117.842 393.45L115.354 389.302L114.11 384.739L112.866 375.613L110.792 371.465L108.719 368.976L106.231 366.902L103.743 363.583L102.913 360.68V351.553L100.84 349.894L91.7174 351.968L85.0826 349.479L72.6425 342.427L68.4958 339.109L65.593 335.79L63.1051 330.397V329.568L62.6904 327.079L63.1051 321.271V319.197V316.294L62.2757 313.39L61.4463 310.071L58.9584 305.923L56.0556 303.849L51.0795 300.945L49.0061 298.456L48.1769 295.967L47.3475 290.16L46.1035 286.841L42.7861 283.937L29.9313 274.811L26.1992 270.663L23.7113 266.515L21.6379 259.878L19.5645 257.389L15.4178 255.315L15.0031 253.241L14.5884 251.167L15.4178 248.263L16.6618 245.774L20.8085 240.796L22.0525 237.892L22.4672 234.988V233.744V232.914L15.0031 228.351L13.3445 225.862L12.9298 224.203L12.5151 220.055L12.1004 218.396L12.5151 216.321L12.9298 214.247L14.1737 208.44L14.5884 204.706V201.388L13.3445 195.995L11.2711 192.262L7.53896 186.869L-6.55985 159.076L-7.80381 154.513L-8.21851 152.024L-7.80381 149.12V145.802L-9.0479 144.557L-11.1213 144.142L-13.6092 143.728L-15.6826 142.898L-16.9266 140.824L-17.3413 138.335L-16.9266 136.676L-16.0972 133.357V132.113V129.624L-16.5119 127.135L-19 121.327V118.838L-16.5119 116.349L16.2471 108.468L26.1992 103.075L38.6393 60.7632L46.1035 45Z" fill="#C1C1FB"/>
<path d="M379.444 343.624C363.445 341.86 351 328.334 351 311.909C351 294.286 365.327 280 383 280C400.673 280 415 294.286 415 311.909C415 328.334 402.556 341.86 386.556 343.624V358H379.444V343.624Z" fill="#000091"/>
<path d="M64.4444 161.624C48.4446 159.86 36 146.334 36 129.909C36 112.286 50.3269 98 68 98C85.6732 98 100 112.286 100 129.909C100 146.334 87.5556 159.86 71.5556 161.624V176H64.4444V161.624Z" fill="#000091"/>
<path d="M137.444 368.624C121.445 366.86 109 353.334 109 336.909C109 319.286 123.327 305 141 305C158.673 305 173 319.286 173 336.909C173 353.334 160.556 366.86 144.556 368.624V383H137.444V368.624Z" fill="#000091"/>
<path d="M299.444 245.624C283.445 243.86 271 230.334 271 213.909C271 196.286 285.327 182 303 182C320.673 182 335 196.286 335 213.909C335 230.334 322.556 243.86 306.556 245.624V260H299.444V245.624Z" fill="white"/>
<path d="M411.444 161.624C395.445 159.86 383 146.334 383 129.909C383 112.286 397.327 98 415 98C432.673 98 447 112.286 447 129.909C447 146.334 434.556 159.86 418.556 161.624V176H411.444V161.624Z" fill="white"/>
</g>
</g>
</pattern><clipPath id="clip0_3473_72192">
<rect width="500" height="500" fill="white"/>
</clipPath>
</defs>
</svg>
