<svg width="112" height="112" viewBox="0 0 112 112" fill="none" xmlns="http://www.w3.org/2000/svg" xmlns:xlink="http://www.w3.org/1999/xlink">
<rect width="112" height="112" rx="4" fill="url(#pattern0_3473_72332)"/>
<defs>
<pattern id="pattern0_3473_72332" patternUnits="userSpaceOnUse" patternTransform="matrix(115 0 0 115 -1.5 -1.5)" preserveAspectRatio="none" viewBox="0 0 500 500" width="1" height="1">
<g id="pattern0_3473_72332_inner">
<g clip-path="url(#clip0_3473_72332)">
<rect width="500" height="500" fill="#F5F5FE"/>
<rect x="-77" y="51" width="383" height="381" rx="12" fill="white"/>
<path d="M-77 63C-77 56.3726 -71.6274 51 -65 51H294C300.627 51 306 56.3726 306 63V117H-77V63Z" fill="#000091"/>
<text fill="#000091" xml:space="preserve" style="white-space: pre" font-family="Marianne" font-size="39.4074" font-weight="bold" letter-spacing="0em"><tspan x="-16" y="342.741">cartes.gouv.fr</tspan></text>
<rect x="204" y="160" width="383" height="381" rx="12" fill="white"/>
<path d="M204 172C204 165.373 209.373 160 216 160H575C581.627 160 587 165.373 587 172V226H204V172Z" fill="#7DA727"/>
<rect x="262" y="314" width="249" height="93"/>
<g clip-path="url(#clip1_3473_72332)">
<path d="M166 246.527H156.63V255.897H166V246.527Z" fill="#E1000F"/>
<path d="M156.63 218.418H147.26V227.787H156.63V218.418Z" fill="#E1000F"/>
<path d="M147.26 180.938H137.891V190.308H147.26V180.938Z" fill="#E1000F"/>
<path d="M109.781 180.938H100.411V190.308H109.781V180.938Z" fill="#E1000F"/>
<path d="M137.891 199.678H128.521V209.048H137.891V199.678Z" fill="#E1000F"/>
<path d="M81.6717 190.308H72.3019V199.678H81.6717V190.308Z" fill="#E1000F"/>
<path d="M91.0415 237.157H81.6717V246.527H91.0415V237.157Z" fill="#E1000F"/>
<path d="M91.0415 209.048H81.6717V218.418H91.0415V209.048Z" fill="#E1000F"/>
<path d="M119.151 265.267H109.781V274.636H119.151V265.267Z" fill="#E1000F"/>
<path d="M72.3019 255.897H62.9321V265.267H72.3019V255.897Z" fill="#E1000F"/>
<path d="M137.891 227.787H128.521V237.157H137.891V227.787Z" fill="#E1000F"/>
<path d="M119.151 162.199H109.781V171.569H119.151V162.199Z" fill="#E1000F"/>
<path d="M119.151 209.048H109.781V218.418H119.151V209.048Z" fill="#E1000F"/>
<path d="M100.411 246.527H91.0415V255.897H100.411V246.527Z" fill="#E1000F"/>
<path d="M109.781 227.787H100.411V237.157H109.781V227.787Z" fill="#E1000F"/>
<path d="M128.521 209.048V199.678H119.151V218.418H137.891V209.048H128.521Z" fill="white"/>
<path d="M100.411 237.157V246.527H109.781V237.157H100.411Z" fill="white"/>
<path d="M128.521 180.938H119.151V190.308H128.521V180.938Z" fill="white"/>
<path d="M91.0417 190.308H81.6719V199.678H91.0417V190.308Z" fill="white"/>
<path d="M100.411 199.678H91.0417V209.048H100.411V199.678Z" fill="white"/>
<path d="M137.891 190.308H128.521V199.678H137.891V190.308Z" fill="white"/>
<path d="M109.781 209.048H100.411V218.418H109.781V209.048Z" fill="white"/>
<path d="M147.26 218.418H137.891V237.157H147.26V218.418Z" fill="white"/>
<path d="M109.781 218.418V237.157H119.151V218.418H109.781Z" fill="white"/>
<path d="M147.26 246.527V237.157H128.521V246.527H147.26Z" fill="#000091"/>
<path d="M147.26 265.267H137.891V274.636H147.26V265.267Z" fill="#000091"/>
<path d="M156.63 227.787H147.26V237.157H156.63V227.787Z" fill="#000091"/>
<path d="M137.891 180.938H128.521V190.308H137.891V180.938Z" fill="#000091"/>
<path d="M119.151 180.938H128.521V171.569H100.411V180.938H109.781V190.308H100.411V180.938H81.6717V190.308H91.0415V199.678H100.411V209.048H119.151V199.678H128.521V190.308H119.151V180.938Z" fill="#000091"/>
<path d="M147.26 180.938V190.308H137.891V218.418H147.26V199.678H156.63V180.938H147.26Z" fill="#000091"/>
<path d="M72.3019 199.678V209.048H91.0415V199.678L72.3019 199.678Z" fill="#000091"/>
<path d="M72.3019 190.308H62.9321V199.678H72.3019V190.308Z" fill="#000091"/>
<path d="M81.6717 237.157H72.3019V246.527H81.6717V237.157Z" fill="#000091"/>
<path d="M100.411 265.267H91.0415V274.636H100.411V265.267Z" fill="#000091"/>
<path d="M128.521 255.897H119.151V265.267H128.521V255.897Z" fill="#000091"/>
<path d="M119.151 218.418V237.157H128.521V227.787H137.891V218.418H119.151Z" fill="#000091"/>
<path d="M100.411 227.787H109.781V218.418H100.411V209.048H91.0415V227.787H81.6717V237.157H91.0415V246.527H100.411V227.787Z" fill="#000091"/>
<path d="M119.151 237.157H109.781V246.527H119.151V237.157Z" fill="#000091"/>
<path d="M109.781 246.527H100.411V255.897H109.781V246.527Z" fill="#000091"/>
</g>
<rect x="154" y="138" width="160" height="160" rx="80" fill="#000091"/>
<path d="M250 234V218L270 238L250 258V242H202V234H250ZM218 178V193.996L266 194V202H218V218L198 198L218 178Z" fill="white"/>
</g>
</g>
</pattern><clipPath id="clip0_3473_72332">
<rect width="500" height="500" fill="white"/>
</clipPath>
<clipPath id="clip1_3473_72332">
<rect width="103.068" height="112.438" fill="white" transform="translate(62.9321 162.199)"/>
</clipPath>
</defs>
</svg>
