<svg width="112" height="112" viewBox="0 0 112 112" fill="none" xmlns="http://www.w3.org/2000/svg" xmlns:xlink="http://www.w3.org/1999/xlink">
<rect width="112" height="112" rx="4" fill="url(#pattern0_3473_72256)"/>
<defs>
<pattern id="pattern0_3473_72256" patternUnits="userSpaceOnUse" patternTransform="matrix(115 0 0 115 -1.5 -1.5)" preserveAspectRatio="none" viewBox="0 0 500 500" width="1" height="1">
<g id="pattern0_3473_72256_inner">
<g clip-path="url(#clip0_3473_72256)">
<rect width="500" height="500" fill="#F5F5FE"/>
<rect x="222" y="87" width="152" height="152" rx="11.1429" fill="white"/>
<path d="M298 189.699L312.849 174.849C321.05 166.648 321.05 153.352 312.849 145.151C304.648 136.95 291.352 136.95 283.151 145.151C274.95 153.352 274.95 166.648 283.151 174.849L298 189.699ZM298 198.184L278.908 179.092C268.364 168.548 268.364 151.452 278.908 140.908C289.452 130.364 306.548 130.364 317.092 140.908C327.636 151.452 327.636 168.548 317.092 179.092L298 198.184ZM295 157V148H301V157H310V163H301V172H295V163H286V157H295Z" fill="#000091"/>
<rect x="222" y="279" width="152" height="152" rx="11.1429" fill="white"/>
<path d="M274 364V344.5C274 337.044 280.044 331 287.5 331C294.956 331 301 337.044 301 344.5V365.5C301 369.642 304.358 373 308.5 373C312.642 373 316 369.642 316 365.5V345.488C312.504 344.252 310 340.919 310 337C310 332.029 314.029 328 319 328C323.971 328 328 332.029 328 337C328 340.919 325.496 344.252 322 345.488V365.5C322 372.956 315.956 379 308.5 379C301.044 379 295 372.956 295 365.5V344.5C295 340.358 291.642 337 287.5 337C283.358 337 280 340.358 280 344.5V364H289L277 379L265 364H274Z" fill="#000091"/>
<rect x="38" y="279" width="152" height="152" rx="11.1429" fill="white"/>
<path d="M93 328V376H141V382H87V328H93ZM137.82 336.82L144.18 343.18L126 361.366L117 352.366L105.18 364.186L98.82 357.82L117 339.64L126 348.64L137.82 336.82Z" fill="#000091"/>
<rect x="406" y="87" width="152" height="152" rx="11.1429" fill="white"/>
<path d="M488 157H476V169H488V157ZM494 157V169H503V157H494ZM488 184V175H476V184H488ZM494 184H503V175H494V184ZM488 142H476V151H488V142ZM494 142V151H503V142H494ZM470 157H461V169H470V157ZM470 184V175H461V184H470ZM470 142H461V151H470V142ZM458 136H506C507.657 136 509 137.343 509 139V187C509 188.657 507.657 190 506 190H458C456.343 190 455 188.657 455 187V139C455 137.343 456.343 136 458 136Z" fill="#000091"/>
<rect x="406" y="279" width="152" height="152" rx="11.1429" fill="white"/>
<path fill-rule="evenodd" clip-rule="evenodd" d="M518 355L501.029 371.971L496.787 367.729L509.516 355L496.787 342.271L501.029 338.029L518 355ZM454.484 355L467.213 367.729L462.971 371.971L446 355L462.971 338.029L467.21 342.271L454.484 355ZM475.364 382H468.98L488.636 328H495.02L475.364 382Z" fill="#000091"/>
<rect x="38" y="87" width="152" height="152" rx="11.1429" fill="#000091"/>
<path d="M84 142L105 133L123 142L141.909 133.896C142.671 133.57 143.552 133.922 143.879 134.684C143.959 134.871 144 135.072 144 135.275V184L123 193L105 184L86.0909 192.104C85.3294 192.43 84.4476 192.077 84.1213 191.316C84.0413 191.129 84 190.928 84 190.725V142ZM126 185.187L138 180.044V142.099L126 147.242V185.187ZM120 184.792V147.208L108 141.208V178.792L120 184.792ZM102 178.758V140.814L90 145.956V183.901L102 178.758Z" fill="white"/>
</g>
</g>
</pattern><clipPath id="clip0_3473_72256">
<rect width="500" height="500" fill="white"/>
</clipPath>
</defs>
</svg>
