<svg width="112" height="112" viewBox="0 0 112 112" fill="none" xmlns="http://www.w3.org/2000/svg" xmlns:xlink="http://www.w3.org/1999/xlink">
<rect width="112" height="112" rx="4" fill="url(#pattern0_3473_72281)"/>
<defs>
<pattern id="pattern0_3473_72281" patternUnits="userSpaceOnUse" patternTransform="matrix(115 0 0 115 0 -1.5)" preserveAspectRatio="none" viewBox="0 0 500 500" width="1" height="1">
<g id="pattern0_3473_72281_inner">
<rect width="500" height="500" fill="#F5F5FE"/>
<rect x="60" y="65" width="379" height="369.438" rx="10.4312" fill="white"/>
<path d="M60 75.4312C60 69.6702 64.6702 65 70.4312 65H428.569C434.33 65 439 69.6702 439 75.4312V129.326H60V75.4312Z" fill="#7DA727"/>
<rect x="101.761" y="215" width="292" height="84" rx="42" fill="#DAE6FD"/>
<text fill="#000091" xml:space="preserve" style="white-space: pre" font-family="Marianne" font-size="31.2936" font-weight="bold" letter-spacing="0em"><tspan x="126" y="266.191">https://data.geo</tspan></text>
<path fill-rule="evenodd" clip-rule="evenodd" d="M89.5 333.25C126.09 333.25 155.75 362.91 155.75 399.5C155.75 436.09 126.09 465.75 89.5 465.75C52.9101 465.75 23.25 436.09 23.25 399.5C23.25 362.91 52.9101 333.25 89.5 333.25ZM102.551 406.125H76.4487C77.4491 422.283 82.0667 437.461 89.5 450.857C97.1341 437.107 101.594 421.823 102.551 406.125ZM63.1789 406.125H36.9107C39.5446 426.955 54.2149 444.272 74.3288 450.294C67.7926 436.43 64.0061 421.43 63.1789 406.125ZM142.089 406.125H115.821C114.994 421.43 111.207 436.43 104.671 450.294C124.785 444.272 139.455 426.955 142.089 406.125ZM89.5 348.143C81.8659 361.893 77.4064 377.177 76.4487 392.875H102.545C101.589 377.178 97.1318 361.893 89.5 348.143ZM74.3288 348.706C54.2149 354.728 39.5446 372.045 36.9107 392.875H63.1789C64.0061 377.57 67.7926 362.57 74.3288 348.706ZM104.671 348.706C111.207 362.57 114.994 377.57 115.821 392.875H142.089C139.455 372.045 124.785 354.728 104.671 348.706Z" fill="#000091"/>
</g>
</pattern></defs>
</svg>
