<svg width="112" height="112" viewBox="0 0 112 112" fill="none" xmlns="http://www.w3.org/2000/svg" xmlns:xlink="http://www.w3.org/1999/xlink">
<rect width="112" height="112" rx="4" fill="url(#pattern0_3473_72307)"/>
<defs>
<pattern id="pattern0_3473_72307" patternUnits="userSpaceOnUse" patternTransform="matrix(120 0 0 120 -4 -4)" preserveAspectRatio="none" viewBox="0 0 500 500" width="1" height="1">
<g id="pattern0_3473_72307_inner">
<g clip-path="url(#clip0_3473_72307)">
<rect width="500" height="500" fill="#F5F5FE"/>
<rect x="72.791" y="85.4892" width="617.316" height="329" rx="16" fill="white"/>
<rect x="396.083" y="156.585" width="444.239" height="21.77" rx="10.885" fill="#ADADF9"/>
<rect x="396.083" y="207.382" width="444.239" height="21.77" rx="10.885" fill="#ADADF9"/>
<rect x="396.083" y="258.178" width="444.239" height="21.77" rx="10.885" fill="#ADADF9"/>
<rect x="396.083" y="308.975" width="166.903" height="21.77" rx="10.885" fill="#000091"/>
<rect x="113.572" y="125.673" width="270.059" height="252.193" rx="4" fill="#DAE6FD"/>
<path d="M324.816 173.82C325.31 173.483 325.966 173.485 326.46 173.834L334.132 179.264L334.244 179.352C334.28 179.383 334.314 179.416 334.347 179.451L343.139 188.76L343.21 188.841C343.233 188.87 343.255 188.899 343.275 188.929L344.052 190.049L344.123 190.164C344.189 190.281 344.238 190.407 344.269 190.538L345.017 193.694L345.442 194.687L346.506 196.403L346.578 196.537C346.6 196.582 346.621 196.629 346.638 196.677L347.068 197.883L347.097 197.972L347.27 198.576L347.299 198.701C347.307 198.743 347.313 198.786 347.317 198.829L347.403 199.69C347.438 200.038 347.346 200.387 347.143 200.671L346.711 201.275C346.584 201.452 346.419 201.598 346.229 201.702L345.513 202.091L345.24 202.411L344.045 204.344C344.083 204.341 344.122 204.34 344.16 204.34H344.677L344.789 204.344C345.344 204.387 345.829 204.748 346.026 205.275L346.284 205.964C346.4 206.273 346.407 206.613 346.303 206.926L346.044 207.702C346.007 207.813 345.956 207.921 345.893 208.02L345.289 208.968C345.213 209.088 345.119 209.196 345.012 209.289L344.408 209.805C344.342 209.862 344.271 209.913 344.196 209.957L343.857 210.154C343.876 210.201 343.893 210.249 343.907 210.298L344.08 210.902C344.117 211.03 344.136 211.164 344.136 211.297V212.805L344.293 215.088L344.506 215.796L344.523 215.861L344.782 216.895L344.808 217.024C344.814 217.067 344.82 217.111 344.822 217.155L344.98 219.704L345.342 219.583C345.565 219.509 345.803 219.491 346.034 219.53L346.552 219.616L346.711 219.652C347.076 219.756 347.388 220.002 347.574 220.337L348.005 221.113C348.15 221.374 348.211 221.675 348.178 221.972L348.092 222.748C348.079 222.861 348.053 222.973 348.014 223.081L347.669 224.029C347.597 224.227 347.482 224.406 347.333 224.555L346.902 224.987C346.759 225.13 346.587 225.239 346.399 225.311L346.021 226.294C346.015 226.311 346.008 226.329 346.001 226.345L345.552 227.393L345.429 228.132V229.012L345.586 231.139L347.08 236.781L348.508 240.223L348.545 240.323C348.556 240.356 348.566 240.391 348.574 240.425L348.919 241.804C349.042 242.295 348.898 242.815 348.54 243.173L348.368 243.345C348.301 243.412 348.227 243.473 348.148 243.526L347.89 243.698C347.733 243.802 347.557 243.875 347.373 243.912L346.942 243.998C346.628 244.06 346.301 244.017 346.015 243.874L345.67 243.702L345.498 243.616C345.219 243.476 344.993 243.25 344.854 242.971L344.836 242.935L344.241 242.193V242.192L344.23 242.179L344.096 242.399L344.105 242.461L344.351 243.442C344.431 243.765 344.398 244.107 344.255 244.409L342.752 247.582L340.198 256.265C340.09 256.633 339.839 256.943 339.502 257.125L337.434 258.247C337.324 258.306 337.206 258.351 337.084 258.38L331.063 259.828L331.262 260.291L331.32 260.453C331.336 260.508 331.349 260.564 331.358 260.621L331.445 261.138C331.458 261.216 331.465 261.296 331.465 261.375V262.151C331.465 262.269 331.45 262.386 331.422 262.5L331.303 262.971C331.315 262.973 331.328 262.976 331.341 262.979L331.771 263.065C332.05 263.121 332.307 263.258 332.508 263.459L332.767 263.717C333.037 263.987 333.188 264.355 333.188 264.737V265.426C333.188 265.494 333.183 265.563 333.174 265.63L333.119 266.011L333.156 266.238L333.396 267.116C333.562 267.724 333.314 268.369 332.783 268.708L330.979 269.862L331.335 271.283C331.364 271.397 331.379 271.515 331.379 271.632V272.322C331.379 272.427 331.367 272.532 331.344 272.634L331.172 273.41C331.133 273.583 331.063 273.749 330.964 273.897L330.619 274.414C330.567 274.492 330.506 274.566 330.439 274.633L330.008 275.064C329.889 275.183 329.751 275.28 329.599 275.351L328.42 275.901L327.721 276.389L326.704 277.26L326.283 277.863L326.055 278.376L325.914 279.012C325.899 279.082 325.878 279.151 325.853 279.217L325.421 280.337C325.362 280.491 325.277 280.633 325.17 280.758L324.653 281.362C324.578 281.45 324.491 281.529 324.396 281.596L323.793 282.027C323.709 282.087 323.619 282.138 323.523 282.179L322.416 282.653L320.263 283.978C320.169 284.036 320.068 284.083 319.964 284.118L319.705 284.204L319.446 284.291C318.938 284.46 318.379 284.331 317.994 283.961L317.712 283.773L317.564 283.714L317.385 283.685L315.674 283.841C315.631 283.845 315.586 283.847 315.543 283.847H314.939C314.785 283.847 314.631 283.822 314.484 283.773L313.967 283.601L313.449 283.428C313.266 283.367 313.097 283.27 312.952 283.142L312.606 282.837C312.516 283.124 312.34 283.377 312.098 283.559L311.753 283.817C311.684 283.869 311.61 283.915 311.532 283.954L311.188 284.125C310.988 284.225 310.767 284.278 310.544 284.278H310.285C310.248 284.278 310.211 284.277 310.175 284.274L309.213 284.199L308.823 284.254L308.508 284.324L308.284 284.716L308.04 285.206C308.001 285.283 307.955 285.356 307.903 285.425L307.387 286.115C307.253 286.294 307.078 286.44 306.878 286.54L306.361 286.797C306.223 286.866 306.074 286.913 305.921 286.935L305.317 287.022C305.171 287.043 305.022 287.04 304.876 287.016L304.477 286.95H304.195L299.498 288.303L299.062 288.577L298.698 288.879L297.471 290.23L297.735 293.008L298.144 294.027L298.949 295.494L299.375 295.919L300.779 296.777L300.872 296.839C300.962 296.904 301.044 296.98 301.117 297.064L303.876 300.253L303.962 300.364C303.989 300.402 304.014 300.441 304.037 300.481L304.382 301.084L304.44 301.198C304.494 301.313 304.531 301.436 304.552 301.562L304.639 302.08C304.671 302.274 304.663 302.474 304.615 302.666L304.571 302.839V302.919C304.571 303.134 304.522 303.344 304.431 303.538L304.38 303.846L304.313 304.246V304.571L304.425 305.078L304.498 305.261L304.715 305.585L305.1 306.048C305.11 306.061 305.12 306.074 305.13 306.086L305.733 306.862C305.893 307.066 305.994 307.311 306.026 307.568L306.112 308.257C306.148 308.54 306.098 308.826 305.971 309.081L305.713 309.598C305.644 309.737 305.552 309.863 305.442 309.972L305.09 310.325L304.937 310.632L304.731 311.04L304.422 312.049C304.388 312.16 304.34 312.267 304.28 312.367L304.021 312.797C303.968 312.886 303.905 312.97 303.834 313.045L302.368 314.597C302.271 314.7 302.158 314.789 302.035 314.859L300.829 315.548C300.782 315.576 300.732 315.6 300.682 315.622L297.062 317.173C297.041 317.182 297.021 317.19 297 317.198L296.311 317.457C296.19 317.502 296.063 317.531 295.935 317.542L295.288 317.6V317.601L295.222 317.969L295.285 318.033L295.548 318.23L295.691 318.353C295.826 318.484 295.933 318.641 296.008 318.815L296.267 319.418C296.343 319.598 296.383 319.791 296.383 319.986V320.589C296.383 320.629 296.381 320.669 296.378 320.708L296.297 321.684V322.439C296.331 322.487 296.362 322.538 296.39 322.59L297.252 324.228L297.266 324.254L297.61 324.944L297.68 325.106C297.699 325.161 297.715 325.218 297.728 325.276L297.9 326.051C297.936 326.212 297.944 326.379 297.924 326.542L297.837 327.233C297.797 327.551 297.653 327.846 297.427 328.073L296.995 328.503L296.65 328.848C296.573 328.925 296.488 328.994 296.396 329.051L295.706 329.482C295.572 329.565 295.426 329.626 295.272 329.663L293.807 330.007C293.583 330.06 293.351 330.059 293.128 330.003L292.093 329.745C291.955 329.71 291.823 329.656 291.701 329.583L290.408 328.806C290.307 328.746 290.214 328.673 290.131 328.589L289.527 327.987C289.479 327.939 289.434 327.887 289.394 327.833L288.876 327.142C288.85 327.108 288.826 327.073 288.804 327.037L287.727 325.296L287.066 324.457C286.846 324.569 286.599 324.626 286.347 324.615L284.364 324.529C284.261 324.524 284.158 324.508 284.059 324.482L279.49 323.275C279.351 323.238 279.217 323.18 279.095 323.104L278.405 322.673C278.232 322.565 278.083 322.421 277.97 322.25L277.797 321.992C277.609 321.71 277.527 321.37 277.564 321.034L277.642 320.336V320.214L277.449 320.263C277.258 320.311 277.058 320.319 276.863 320.287L275.829 320.115C275.655 320.086 275.487 320.025 275.335 319.935L273.87 319.073C273.811 319.038 273.754 318.999 273.7 318.957L272.838 318.267C272.743 318.191 272.659 318.103 272.586 318.006L272.068 317.317C271.997 317.221 271.937 317.117 271.891 317.006L271.46 315.972C271.441 315.926 271.424 315.879 271.41 315.832L271.151 314.97C271.134 314.912 271.12 314.852 271.11 314.792L270.938 313.758C270.928 313.698 270.921 313.637 270.919 313.577L270.833 311.335C270.83 311.26 270.833 311.184 270.842 311.109L271.101 308.954C271.102 308.943 271.104 308.932 271.105 308.921L271.162 308.522L271.134 308.322L270.945 307.899L270.914 307.86L270.522 307.664L268.449 306.707L267.978 306.602H267.531L263.32 307.615L262.604 308.136C262.54 308.183 262.472 308.224 262.401 308.259L261.885 308.518C261.791 308.565 261.691 308.602 261.589 308.627L261.286 308.703L261.096 308.893L260.837 309.204L260.574 309.797C260.52 309.919 260.449 310.032 260.364 310.134L259.953 310.627L259.721 310.938C259.623 311.069 259.503 311.182 259.367 311.273L259.108 311.445C258.984 311.527 258.848 311.59 258.705 311.631L258.102 311.804C257.973 311.841 257.84 311.86 257.706 311.86H257.533L257.403 312.638C257.354 312.934 257.213 313.207 257.001 313.419L256.656 313.765C256.386 314.035 256.02 314.187 255.638 314.187H254.947C254.78 314.187 254.613 314.157 254.455 314.1L253.577 313.781L253.133 313.669H252.892L249.797 314.087C249.4 314.141 248.999 314.028 248.689 313.774C248.38 313.52 248.19 313.149 248.165 312.75L247.923 308.862L247.821 308.626L247.818 308.623L247.471 308.565C247.351 308.545 247.233 308.51 247.122 308.46L246.347 308.115C246.229 308.063 246.119 307.995 246.02 307.914L245.071 307.138C245.002 307.081 244.937 307.018 244.88 306.95L243.07 304.794C242.988 304.697 242.919 304.588 242.865 304.472L242.348 303.351C242.3 303.249 242.265 303.14 242.243 303.03L242.07 302.168C242.002 301.827 242.06 301.472 242.232 301.17L242.462 300.768L242.492 300.615L240.954 300.023C240.951 300.062 240.947 300.101 240.94 300.14L240.854 300.657C240.813 300.899 240.711 301.129 240.558 301.321L240.213 301.751C240.18 301.793 240.144 301.832 240.106 301.87L239.676 302.301C239.53 302.447 239.355 302.559 239.163 302.631L238.473 302.89C238.311 302.951 238.139 302.982 237.967 302.982H236.919L236.51 303.072L236.391 303.14L236.063 303.633C236.049 303.655 236.033 303.677 236.017 303.698L235.759 304.042L235.5 304.388C235.294 304.663 234.995 304.856 234.659 304.93L233.884 305.102C233.657 305.152 233.422 305.147 233.198 305.087L229.781 304.17L227.218 303.93H226.876L226.651 303.994L226.562 304.048L224.896 305.874C224.881 305.89 224.865 305.906 224.85 305.921L224.419 306.352C224.289 306.482 224.136 306.586 223.968 306.658L223.364 306.917C223.292 306.948 223.216 306.973 223.14 306.992L218.571 308.112C218.307 308.176 218.03 308.165 217.772 308.08L217.256 307.907C216.854 307.773 216.53 307.468 216.373 307.075L216.225 306.704L214.639 307.126L214.51 307.513C214.456 307.674 214.375 307.825 214.269 307.958L213.924 308.388C213.776 308.573 213.584 308.719 213.366 308.812L212.763 309.071C212.509 309.179 212.23 309.213 211.958 309.167L211.44 309.082C211.144 309.032 210.871 308.891 210.659 308.679L210.228 308.249C210.202 308.223 210.178 308.194 210.154 308.167L209.799 308.309C209.381 308.476 208.908 308.438 208.522 308.207L208.092 307.948C207.889 307.826 207.719 307.656 207.598 307.454L207.339 307.023C207.309 306.973 207.282 306.92 207.258 306.867L206.6 305.385L206.15 304.616L205.977 304.458L204.685 304.684C204.381 304.737 204.068 304.691 203.793 304.553L203.752 304.533H203.748C203.39 304.533 203.046 304.398 202.781 304.159L202.365 303.998L202.248 304.069C202.217 304.088 202.184 304.106 202.151 304.123L202.06 304.167L201.875 304.292C201.756 304.371 201.626 304.431 201.489 304.472L199.766 304.99C199.631 305.03 199.492 305.05 199.352 305.05H197.542C197.465 305.05 197.388 305.044 197.312 305.032L194.641 304.601C194.497 304.578 194.356 304.533 194.226 304.467L192.846 303.778C192.755 303.733 192.67 303.677 192.591 303.614L191.946 303.098L186.941 301.589L185.84 301.52L185.601 301.542L184.978 302.554C184.942 302.613 184.901 302.669 184.857 302.722L184.427 303.239C184.399 303.272 184.369 303.305 184.338 303.335L183.907 303.766C183.824 303.849 183.731 303.922 183.63 303.983L183.199 304.242C183.109 304.296 183.013 304.339 182.913 304.373L181.803 304.743L181.563 304.903L180.546 305.921C180.479 305.988 180.405 306.048 180.326 306.101L179.551 306.619C179.464 306.676 179.371 306.724 179.273 306.762L177.722 307.366C177.555 307.43 177.378 307.463 177.199 307.463H175.993C175.853 307.463 175.713 307.443 175.579 307.403L174.717 307.144C174.531 307.088 174.357 306.996 174.208 306.872L173.691 306.44C173.585 306.351 173.492 306.248 173.415 306.132L173.224 305.845L172.073 305.055C172.001 305.005 171.933 304.949 171.871 304.887L171.44 304.456C171.343 304.358 171.26 304.248 171.194 304.127L169.643 301.283C169.627 301.255 169.612 301.226 169.599 301.197L169.082 300.076C169.024 299.949 168.984 299.814 168.964 299.676L168.881 299.097L168.739 298.321L168.663 298.131L168.465 297.8C168.397 297.687 168.345 297.565 168.311 297.438L168.093 296.641L167.305 295.144C167.278 295.094 167.256 295.042 167.235 294.99L166.805 293.87C166.797 293.849 166.789 293.829 166.782 293.808L166.609 293.291C166.591 293.234 166.575 293.176 166.563 293.118L166.488 292.745L166.369 292.327L166.343 292.273C166.156 291.899 166.141 291.462 166.301 291.077C166.461 290.691 166.78 290.393 167.176 290.261L167.693 290.089L167.854 290.045C168.018 290.011 168.187 290.006 168.353 290.03L172.312 290.595L173.981 290.216L173.905 289.91C173.896 289.873 173.888 289.835 173.882 289.797L173.828 289.474L172.453 289.037C172.31 288.991 172.175 288.924 172.053 288.836L171.449 288.406C171.341 288.329 171.244 288.237 171.161 288.133L170.816 287.702C170.681 287.532 170.584 287.334 170.536 287.122L170.205 285.664L168.557 284.16C168.34 283.961 168.188 283.701 168.123 283.415L167.692 281.519C167.669 281.414 167.656 281.307 167.656 281.2V279.052L167.44 277.473L167.214 276.988L166.571 276.817C165.941 276.649 165.501 276.077 165.501 275.424V274.821C165.501 274.275 165.81 273.777 166.298 273.533L166.733 273.314L166.973 273.042L167.166 272.508L167.579 268.801L167.613 268.61C167.629 268.547 167.649 268.485 167.673 268.425L168.018 267.563L168.102 267.388C168.057 267.326 168.015 267.26 167.98 267.191L167.723 266.674C167.594 266.418 167.545 266.129 167.582 265.844L167.954 262.971C167.55 262.916 167.182 262.694 166.95 262.347L166.605 261.83C166.584 261.797 166.564 261.764 166.545 261.73L166.113 260.955C166.052 260.844 166.006 260.726 165.976 260.604L165.803 259.915C165.769 259.78 165.756 259.641 165.762 259.502L165.848 257.52L165.854 257.439L165.911 256.858C165.75 256.717 165.618 256.542 165.531 256.34L165.273 255.737C165.179 255.517 165.14 255.277 165.162 255.039L165.249 254.09L165.263 253.98C165.269 253.944 165.277 253.907 165.286 253.872L165.545 252.837L165.575 252.731L165.92 251.697C165.96 251.575 166.017 251.46 166.088 251.353L166.194 251.192L165.834 250.109C165.818 250.062 165.805 250.014 165.794 249.965L165.449 248.414C165.443 248.385 165.437 248.355 165.433 248.326L165.174 246.689C165.167 246.643 165.162 246.595 165.159 246.548L165.129 246.044C164.94 245.956 164.767 245.829 164.629 245.663L163.767 244.628C163.638 244.474 163.543 244.294 163.488 244.101L162.707 241.37L162.121 240.653C161.803 240.264 161.72 239.756 161.862 239.305L161.544 239.043C161.467 238.98 161.397 238.908 161.335 238.831L160.646 237.969C160.539 237.837 160.457 237.686 160.403 237.525L159.973 236.232C159.955 236.178 159.94 236.124 159.929 236.069L159.113 235.476C159.039 235.422 158.97 235.361 158.907 235.293L157.845 234.156L156.993 233.659C156.813 233.554 156.662 233.414 156.547 233.252H156.082C155.7 233.252 155.333 233.1 155.062 232.83L154.546 232.313C154.329 232.096 154.187 231.816 154.141 231.513L153.968 230.392C153.952 230.29 153.948 230.187 153.954 230.083L154.124 227.357V226.444L154.057 226.243L153.845 225.819V225.818L153.084 224.383C153.03 224.281 152.988 224.171 152.96 224.058L152.874 223.713C152.846 223.599 152.831 223.481 152.831 223.364V223.111L152.753 222.801L152.395 222.204L151.078 220.558L150.733 220.127C150.442 219.763 150.345 219.28 150.473 218.832L150.817 217.625L150.888 217.432C150.971 217.246 151.093 217.079 151.246 216.943L152.563 215.77L152.678 215.513L152.831 213.227V212.104L152.577 211.218L152.207 210.476C152.197 210.457 152.188 210.437 152.179 210.417L151.893 209.774L151.878 209.753L150.714 209.521C150.61 209.5 150.508 209.468 150.411 209.425L148.084 208.39C147.455 208.111 147.111 207.425 147.264 206.754L147.637 205.118L147.501 204.174C147.467 203.935 147.493 203.691 147.578 203.465L147.837 202.776L147.92 202.593C148.141 202.186 148.549 201.905 149.018 201.85L150.483 201.678L150.662 201.668C150.841 201.67 151.019 201.704 151.187 201.771L151.617 201.944L151.765 202.012C151.812 202.038 151.858 202.066 151.902 202.096L152.827 202.737L152.924 202.764L154.104 202.626L154.261 202.617C154.419 202.616 154.577 202.64 154.728 202.69L155.244 202.863L155.347 202.901C155.582 203 155.787 203.16 155.941 203.365L156.2 203.709L156.28 203.829C156.355 203.951 156.41 204.085 156.445 204.225L156.518 204.512H156.599C156.764 204.512 156.929 204.541 157.084 204.596L158.156 204.979L161.548 205.476L161.683 205.501C161.727 205.512 161.771 205.526 161.813 205.541L165.479 206.815L166.023 206.76C166.428 206.72 166.832 206.853 167.134 207.125C167.167 207.156 167.198 207.188 167.228 207.221C167.261 207.201 167.297 207.182 167.332 207.165L167.85 206.906L167.973 206.851C168.264 206.738 168.586 206.723 168.89 206.809L169.493 206.981L169.614 207.022L170.486 207.357H170.567L170.95 207.165L171.555 206.62L172.845 204.847C172.924 204.738 173.019 204.64 173.126 204.557L173.901 203.954C174.034 203.85 174.184 203.771 174.345 203.719L176.759 202.944L176.917 202.903C176.971 202.892 177.025 202.884 177.08 202.879L178.114 202.793C178.244 202.783 178.374 202.79 178.502 202.814L184.88 204.02C185.047 204.052 185.208 204.113 185.354 204.201L185.784 204.459L185.892 204.53C186.133 204.706 186.315 204.953 186.41 205.239L186.583 205.756L186.632 205.947L186.854 207.138L187.979 209.464L188.053 209.648C188.073 209.711 188.088 209.775 188.1 209.84L188.358 211.305C188.457 211.861 188.221 212.424 187.756 212.744L186.774 213.417L186.717 213.588L186.647 214.214C186.619 214.47 186.523 214.714 186.368 214.92L186.109 215.265C185.837 215.628 185.41 215.841 184.957 215.841H184.318L184.194 216.786L184.675 217.927L185.541 219.186C185.617 219.297 185.678 219.419 185.721 219.547L186.414 221.629L190.308 226.517C190.395 226.627 190.466 226.75 190.519 226.88L191.036 228.173L191.099 228.369C191.115 228.435 191.125 228.503 191.132 228.572L191.305 230.381C191.314 230.474 191.313 230.569 191.304 230.662L191.218 231.524C191.215 231.548 191.209 231.571 191.205 231.595C191.414 231.627 191.614 231.703 191.79 231.821L192.06 231.122L192.106 231.013C192.158 230.907 192.221 230.807 192.297 230.716L193.159 229.682L193.27 229.563C193.386 229.451 193.522 229.36 193.67 229.292L194.618 228.862L194.782 228.798C194.949 228.746 195.126 228.724 195.302 228.735L202.37 229.167L202.479 229.177C202.588 229.192 202.696 229.22 202.799 229.259L208.882 231.592L217.793 232.096L217.966 232.117C218.023 232.127 218.079 232.141 218.135 232.158L220.255 232.809L221.022 232.906L222.495 232.036L222.622 231.968C222.926 231.827 223.272 231.797 223.599 231.884L224.892 232.229L225 232.262C225.036 232.275 225.072 232.289 225.106 232.304L227.154 233.214H230.468C230.636 233.214 230.803 233.244 230.961 233.301L231.909 233.646L232.074 233.718C232.128 233.746 232.181 233.777 232.23 233.811L233.642 234.776L236.044 235.319L236.155 235.348C236.266 235.383 236.372 235.431 236.471 235.491L240.537 237.945L241.035 237.481L241.179 237.363C241.33 237.255 241.501 237.177 241.683 237.133L250.14 235.102L252.259 234.043L253.601 232.94L253.72 232.852C253.843 232.77 253.978 232.707 254.121 232.667L255.034 232.405L255.151 232.307L256.326 230.506C256.421 230.361 256.542 230.234 256.683 230.131L260.217 227.545L260.338 227.465C260.463 227.392 260.598 227.338 260.739 227.305L265.927 226.092L265.875 226.085C265.782 226.073 265.69 226.051 265.602 226.021L262.036 224.805L261.153 224.805C261.106 224.805 261.058 224.803 261.011 224.798L260.148 224.711C260.072 224.704 259.995 224.69 259.921 224.67L258.628 224.326C258.476 224.285 258.33 224.22 258.199 224.132L257.165 223.443C256.974 223.316 256.817 223.144 256.705 222.944L256.274 222.167C256.231 222.09 256.195 222.008 256.167 221.923L256.15 221.875L255.786 221.632C255.488 221.433 255.274 221.13 255.188 220.783L255.015 220.093C254.975 219.933 254.963 219.766 254.979 219.601L255.065 218.739L255.084 218.612C255.092 218.57 255.102 218.528 255.113 218.487L255.286 217.883L255.334 217.743C255.352 217.697 255.374 217.653 255.396 217.609L258.003 212.646L260.117 205.542L260.165 205.408C260.219 205.276 260.293 205.151 260.384 205.041L261.159 204.092L261.259 203.983C261.294 203.948 261.331 203.914 261.37 203.883L264.042 201.729L264.141 201.656C264.378 201.496 264.658 201.41 264.946 201.41H264.952L265.048 201.314C265.166 201.196 265.304 201.1 265.455 201.029L272.123 197.9L272.515 197.398L272.602 197.295C272.693 197.198 272.798 197.114 272.913 197.045L279.55 193.081L279.688 193.007C279.735 192.986 279.784 192.967 279.833 192.951L281.473 192.404L283.478 191.122L283.609 191.046C283.654 191.024 283.701 191.004 283.748 190.986L287.886 189.434L288.009 189.394C288.133 189.36 288.262 189.342 288.392 189.342H292.734L314.244 182.425L315.332 181.556C315.465 181.45 315.615 181.368 315.776 181.314L316.705 181.004L318.605 178.877L318.686 178.794C318.713 178.768 318.743 178.743 318.772 178.718L324.72 173.891L324.816 173.82Z" fill="#ADADF9"/>
<path d="M52.7993 295.638L124.146 280L195.492 295.638C199.465 296.508 202.291 299.984 202.291 303.998V389.523C202.291 406.703 193.586 422.747 179.092 432.277L124.146 468.406L69.1988 432.277C54.7055 422.747 46 406.703 46 389.523L46 303.998C46 299.984 48.8265 296.508 52.7993 295.638ZM132.828 357.075V314.256L89.4142 374.203H115.463L115.463 417.023L158.877 357.075H132.828Z" fill="#000091"/>
</g>
</g>
</pattern><clipPath id="clip0_3473_72307">
<rect width="500" height="500" fill="white"/>
</clipPath>
</defs>
</svg>
